<svg width="75" height="75" viewBox="0 0 75 75" fill="none" xmlns="http://www.w3.org/2000/svg">
<g clip-path="url(#clip0_105805_1667)">
<path d="M54.5382 13.1372L45.1596 22.6098C42.4294 21.1147 39.3128 20.4285 36.1746 20.6705C33.1628 20.9016 30.2954 21.9742 27.883 23.7329C25.6909 23.0864 23.4086 22.7542 21.1334 22.7542H21.0395C17.3271 22.7759 13.7338 23.6426 10.4656 25.2857C11.8668 22.0103 13.8566 19.0165 16.3376 16.4416C19.8153 12.8411 24.1417 10.1904 28.9122 8.74588C33.6828 7.30135 38.7423 7.10995 43.6067 8.18612C47.5611 9.06006 51.2772 10.7502 54.5382 13.1372Z" fill="white"/>
<path d="M74.0503 53.3963C72.6997 57.7841 69.9876 61.6121 66.3149 64.3206C62.6422 67.0291 58.2038 68.4736 53.6572 68.4375H40.2339V55.2742H53.6572C54.7261 55.2742 55.7843 55.0611 56.7738 54.6458C57.7596 54.2341 58.6589 53.6274 59.4136 52.8654C60.1684 52.1035 60.7715 51.197 61.1796 50.1967C61.5877 49.1999 61.8007 48.131 61.8007 47.0512C61.8007 45.9714 61.5877 44.9025 61.1796 43.9057C60.7715 42.909 60.1684 42.0026 59.4136 41.237C58.6589 40.475 57.7596 39.8683 56.7738 39.4566C55.7843 39.0413 54.7261 38.8282 53.6572 38.8282V37.1887C53.7005 34.7041 53.1877 32.2412 52.1549 29.9841C51.6998 28.9874 51.1473 28.0448 50.5081 27.1672C49.7353 26.1019 48.8288 25.1305 47.8177 24.2782C47.7743 24.2421 47.7274 24.2024 47.684 24.1662L56.7051 15.0585L56.8351 14.9285C57.7235 15.723 58.5577 16.568 59.3378 17.46C62.3208 20.8619 64.4984 24.921 65.6865 29.3377C69.4567 31.9089 72.3025 35.6394 73.8084 39.973C75.3143 44.3066 75.3974 49.0122 74.0503 53.3963Z" fill="white"/>
<path d="M37.9405 34.0253L28.4933 43.5628C27.948 42.353 27.1246 41.2913 26.0845 40.4715C25.0481 39.6517 23.8275 39.0992 22.5346 38.8608C21.2381 38.6225 19.902 38.7055 18.6452 39.1028C17.3885 39.4964 16.2437 40.197 15.312 41.136C14.3802 42.0749 13.6905 43.2305 13.2968 44.5017C12.9032 45.7693 12.8238 47.1163 13.0585 48.4272C13.2968 49.7345 13.8421 50.966 14.6547 52.0133C14.7305 52.1072 14.8064 52.2047 14.8858 52.295C15.6623 53.2122 16.6265 53.9453 17.7171 54.4437H17.7135L8.29154 63.9595L8.26987 63.9812C7.40676 63.3095 6.59783 62.5728 5.85389 61.7819C3.58237 59.3768 1.88505 56.4588 0.917214 53.2483C-0.364807 48.987 -0.299803 44.4259 1.10861 40.2042C1.9645 37.6366 3.29347 35.2712 5.01246 33.2236C6.1103 31.9054 7.37426 30.7245 8.77546 29.6989C9.01742 29.5219 9.26299 29.3486 9.51217 29.1825H9.51578C12.9357 26.9001 16.9443 25.6687 21.0576 25.6434C22.4479 25.6398 23.8311 25.7734 25.1889 26.0406H25.1925C26.3084 26.2609 27.4063 26.5715 28.4752 26.9723C29.1542 27.2251 29.8223 27.514 30.4723 27.8355C33.4011 29.2908 35.9579 31.4107 37.9405 34.0253Z" fill="white"/>
<path d="M37.3446 55.1804V68.3437H21.0576C17.4101 68.3618 13.8421 67.4228 10.6895 65.6424L21.054 55.1804H37.3446Z" fill="white"/>
</g>
<defs>
<clipPath id="clip0_105805_1667">
<rect width="75" height="60.9375" fill="white" transform="translate(0 7.5)"/>
</clipPath>
</defs>
</svg>
