<svg width="75" height="75" viewBox="0 0 75 75" fill="none" xmlns="http://www.w3.org/2000/svg">
<path d="M74.2711 30.4273C74.062 30.2526 72.1835 28.8225 68.1486 28.8225C67.1048 28.8225 66.0266 28.9271 64.9828 29.1017C64.2182 23.7624 59.7996 21.18 59.6263 21.0398L58.5481 20.4114L57.8522 21.4234C56.9831 22.7847 56.3216 24.3206 55.9393 25.8909C55.209 28.9271 55.6615 31.7885 57.1921 34.232C55.3479 35.2784 52.3568 35.5232 51.731 35.5576H2.3356C1.04839 35.5576 0.00460235 36.604 0.00460235 37.8965C-0.0655128 42.2238 0.666066 46.5511 2.16097 50.635C3.8649 55.1025 6.40492 58.4178 9.67388 60.4418C13.3609 62.7106 19.3789 64.0018 26.1615 64.0018C29.2228 64.0018 32.284 63.7227 35.3096 63.1644C39.5178 62.3971 43.554 60.9313 47.2754 58.8027C50.3367 57.0234 53.0844 54.7546 55.4154 52.1021C59.3458 47.6703 61.6768 42.7146 63.3807 38.3172H64.0766C68.3549 38.3172 70.9995 36.6066 72.46 35.1408C73.4337 34.2333 74.1639 33.1168 74.6865 31.86L75 30.9525L74.2697 30.4286L74.2711 30.4273Z" fill="white"/>
<path d="M6.95805 34.154H13.5674C13.8809 34.154 14.1587 33.9093 14.1587 33.56V27.6174C14.1587 27.3026 13.9153 27.0234 13.5674 27.0234H6.95805C6.64451 27.0234 6.3667 27.2682 6.3667 27.6174V33.56C6.4011 33.9093 6.64451 34.154 6.95805 34.154ZM16.0704 34.154H22.6797C22.9932 34.154 23.2711 33.9093 23.2711 33.56V27.6174C23.2711 27.3026 23.0276 27.0234 22.6797 27.0234H16.0704C15.7568 27.0234 15.479 27.2682 15.479 27.6174V33.56C15.5134 33.9093 15.7568 34.154 16.0704 34.154ZM25.3586 34.154H31.968C32.2815 34.154 32.5593 33.9093 32.5593 33.56V27.6174C32.5593 27.3026 32.3159 27.0234 31.968 27.0234H25.3586C25.0451 27.0234 24.7673 27.2682 24.7673 27.6174V33.56C24.7673 33.9093 25.0107 34.154 25.3586 34.154ZM34.5067 34.154H41.116C41.4296 34.154 41.7074 33.9093 41.7074 33.56V27.6174C41.7074 27.3026 41.464 27.0234 41.116 27.0234H34.5067C34.1931 27.0234 33.9153 27.2682 33.9153 27.6174V33.56C33.9153 33.9093 34.1931 34.154 34.5067 34.154ZM16.0704 25.6608H22.6797C22.9932 25.6608 23.2711 25.3817 23.2711 25.0668V19.1242C23.2711 18.8094 23.0276 18.5302 22.6797 18.5302H16.0704C15.7568 18.5302 15.479 18.775 15.479 19.1242V25.0668C15.5134 25.3817 15.7568 25.6608 16.0704 25.6608ZM25.3586 25.6608H31.968C32.2815 25.6608 32.5593 25.3817 32.5593 25.0668V19.1242C32.5593 18.8094 32.3159 18.5302 31.968 18.5302H25.3586C25.0451 18.5302 24.7673 18.775 24.7673 19.1242V25.0668C24.7673 25.3817 25.0107 25.6608 25.3586 25.6608ZM34.5067 25.6608H41.116C41.4296 25.6608 41.7074 25.3817 41.7074 25.0668V19.1242C41.7074 18.8094 41.4296 18.5302 41.116 18.5302H34.5067C34.1931 18.5302 33.9153 18.775 33.9153 19.1242V25.0668C33.9153 25.3817 34.1931 25.6608 34.5067 25.6608ZM34.5067 17.1306H41.116C41.4296 17.1306 41.7074 16.8858 41.7074 16.5366V10.594C41.7074 10.2791 41.4296 10 41.116 10H34.5067C34.1931 10 33.9153 10.2447 33.9153 10.594V16.5366C33.9153 16.8514 34.1931 17.1306 34.5067 17.1306ZM43.7235 34.154H50.3329C50.6464 34.154 50.9242 33.9093 50.9242 33.56V27.6174C50.9242 27.3026 50.6808 27.0234 50.3329 27.0234H43.7235C43.41 27.0234 43.1322 27.2682 43.1322 27.6174V33.56C43.1666 33.9093 43.41 34.154 43.7235 34.154Z" fill="white"/>
</svg>
