<svg width="77" height="76" viewBox="0 0 77 76" fill="none" xmlns="http://www.w3.org/2000/svg">
<g clip-path="url(#clip0_105208_1112)">
<path d="M63.9012 31.6751L39.5508 45.3693C39.1126 45.6239 38.5711 45.6239 38.12 45.3693L13.7696 31.6751C12.8157 31.1406 12.8157 29.7788 13.7696 29.2316L38.12 15.5373C38.5583 15.2828 39.0997 15.2828 39.5508 15.5373L63.9012 29.2316C64.8551 29.7661 64.8551 31.1279 63.9012 31.6751Z" fill="white"/>
<path d="M59.686 36.2822V47.571C59.686 48.0801 59.4153 48.5383 58.9641 48.7928L39.5508 59.7126C39.1126 59.9671 38.5712 59.9671 38.12 59.7126L18.7067 48.7928C18.2556 48.5383 17.9849 48.0801 17.9849 47.571V36.2822L28.7485 42.3275L38.12 47.6092C38.5583 47.8638 39.0997 47.8638 39.5508 47.6092L48.9223 42.3275L59.686 36.2822Z" fill="white"/>
<path d="M71.0295 17.6501L71.6998 17.1919C72.5119 16.6319 72.4088 15.4229 71.5193 15.0029L66.1826 12.4957C65.2803 12.0757 64.2619 12.7757 64.3393 13.7556L64.8549 19.5719C64.9451 20.5391 66.0666 21.0609 66.8787 20.5009L67.8326 19.8519C76.3147 33.3424 74.033 51.3129 62.1737 62.2581C50.5077 73.0251 32.5253 74.336 19.4155 65.3762C18.539 64.778 17.3273 64.9944 16.7214 65.8598C16.1155 66.7253 16.3347 67.9216 17.2112 68.5198C23.6952 72.9488 31.2362 75.1251 38.7643 75.1251C48.1874 75.1251 57.5846 71.7142 64.8162 65.0453C78.0549 52.8147 80.6072 32.6934 71.0295 17.6501Z" fill="white"/>
<path d="M60.4593 6.73042C45.8671 -3.24752 25.848 -1.78391 12.8543 10.2049C-0.719533 22.7409 -3.15586 42.7732 6.96327 58.071L6.02225 58.7073C5.21014 59.2673 5.31327 60.4764 6.20272 60.8964L11.5394 63.4036C12.4418 63.8236 13.4601 63.1236 13.3828 62.1436L12.8672 56.3274C12.7769 55.3601 11.6554 54.8383 10.8433 55.3983L10.1472 55.882C1.1496 42.1496 3.32812 24.2173 15.4968 12.9921C27.1628 2.22508 45.1452 0.901474 58.255 9.87398C59.1315 10.4721 60.3433 10.2558 60.9491 9.39036C61.555 8.52493 61.3358 7.32859 60.4593 6.73042Z" fill="white"/>
</g>
<defs>
<clipPath id="clip0_105208_1112">
<rect width="76.0417" height="75" fill="white" transform="translate(0.75 0.125)"/>
</clipPath>
</defs>
</svg>
