<?xml version="1.0" encoding="UTF-8" standalone="no"?>
<!DOCTYPE svg PUBLIC "-//W3C//DTD SVG 1.1//EN" "http://www.w3.org/Graphics/SVG/1.1/DTD/svg11.dtd">
<svg width="100%" height="100%" viewBox="0 0 1024 1024" version="1.1" xmlns="http://www.w3.org/2000/svg" xmlns:xlink="http://www.w3.org/1999/xlink" xml:space="preserve" xmlns:serif="http://www.serif.com/" style="fill-rule:evenodd;clip-rule:evenodd;stroke-linejoin:round;stroke-miterlimit:2;">
    <path d="M259.003,825L259.003,504L258.003,503L258.003,501L259.003,500L259.003,495L258.003,494L259.003,493L258.003,492L259.003,491L259.003,480L258.003,479L258.003,478L259.003,477L258.003,476L258.003,474L259.003,473L259.003,451L258.003,450L259.003,449L259.003,439L258.003,438L259.003,437L259.003,432L258.003,431L259.003,430L259.003,304L258.003,303L258.003,302L259,301.003L260,301.003L408,449.003L409,449.003L416.997,457L416.997,458L417,458.003L418,458.003L418.997,459L418.997,460L425,466.003L426,466.003L426.997,467L426.997,468L427,468.003L428,468.003L433.997,474L433.997,475L434,475.003L435,475.003L442.997,483L442.997,484L443,484.003L444,484.003L528,568.003L528.003,568L528.003,463L501.003,436L502.003,435L502.003,434L527,409.003L528,409.003L529.003,408L529.003,407L532,404.003L533,404.003L533.003,404L533.003,403L542,394.003L543,394.003L544.003,393L544.003,392L546,390.003L547,390.003L548.003,389L548.003,388L549,387.003L550,387.003L570.003,367L570.003,366L571,365.003L572,365.003L649.003,288L649.003,287L650,286.003L651,286.003L659,278.003L764,278.003L764.997,279L764.997,347L765,347.003L839,347.003L839.003,347L839.003,199L839,198.997L633,198.997L544.997,287L544.997,288L544,288.997L543,288.997L537.997,294L537.997,295L536,296.997L535,296.997L534.997,297L534.997,298L533,299.997L532,299.997L531.997,300L531.997,301L517,315.997L516,315.997L512.997,319L512.997,320L512,320.997L511,320.997L510.997,321L510.997,322L510,322.997L509,322.997L508.997,323L508.997,324L508,324.997L507,324.997L449.997,382L449.997,383L449,383.997L448,383.997L394,329.997L393,329.997L392.003,329L392.003,328L390,325.997L389,325.997L388.003,325L388.003,324L388,323.997L387,323.997L386.003,323L386.003,322L386,321.997L385,321.997L383.003,320L383.003,319L382,317.997L381,317.997L380.003,317L380.003,316L380,315.997L379,315.997L279,215.997L278,215.997L271.003,209L271.003,208L265,201.997L264,201.997L262.003,200L262.003,199L262,198.997L183,198.997L182.997,199L183.997,200L183.997,825L184,825.003L259,825.003L259.003,825" style="fill:white;fill-rule:nonzero;"/>
    <path d="M693.003,825L761,757.003L762,757.003L762.003,757L762.003,756L763,755.003L764,755.003L765.003,754L765.003,753L767,751.003L768,751.003L839.003,680L839.003,424L839,423.997L602,423.997L601.997,424L601.997,502L602,502.003L764,502.003L764.997,503L764.997,649L588.997,825L589,825.003L693,825.003L693.003,825" style="fill:white;fill-rule:nonzero;"/>
    <path d="M518.003,825L686.003,657L686.003,558L686,557.997L627,616.997L626,616.997L624.997,618L624.997,619L624,619.997L623,619.997L512.997,730L512.997,731L512,731.997L510,731.997L418.003,640L418.003,549L343,473.997L342.997,474L342.997,671L367,695.003L368,695.003L368.997,696L368.997,697L370,698.003L371,698.003L371.997,699L371.997,700L372,700.003L373,700.003L373.997,701L373.997,702L374,702.003L375,702.003L463,790.003L464,790.003L464.997,791L464.997,792L471,798.003L472,798.003L473.997,800L473.997,801L476,803.003L477,803.003L477.997,804L477.997,805L481,808.003L482,808.003L499,825.003L518,825.003L518.003,825" style="fill:white;fill-rule:nonzero;"/>
</svg>
