<svg width="75" height="75" viewBox="0 0 75 75" fill="none" xmlns="http://www.w3.org/2000/svg">
<g clip-path="url(#clip0_105805_1692)">
<path d="M66.1001 24.4992C66.1648 21.5563 64.27 18.5349 62.1328 16.075C61.9824 15.9034 61.8299 15.7339 61.6794 15.5665C61.0819 14.9097 60.474 14.2995 59.8953 13.7529C57.9817 11.9413 56.3709 10.7908 56.3709 10.7908C45.5555 2.65267 35.3751 2.71835 29.1077 3.98961C28.9281 4.02775 28.7505 4.06377 28.5771 4.1019C28.3159 4.16123 28.0631 4.22055 27.8187 4.27988C27.7372 4.30107 27.6558 4.32225 27.5764 4.34132C27.4949 4.36251 27.4155 4.3837 27.3382 4.40489C26.6342 4.59134 25.9991 4.78626 25.4455 4.97483C25.3306 5.01509 25.2198 5.05323 25.1112 5.09137C25.0443 5.11467 24.9796 5.13798 24.9148 5.16129C24.8166 5.1973 24.7226 5.23332 24.6307 5.26722C24.5806 5.28629 24.5304 5.30536 24.4824 5.32443C24.4677 5.32867 24.4552 5.33291 24.4406 5.33926C24.3612 5.36892 24.286 5.39859 24.2129 5.42825C24.146 5.45367 24.0813 5.4791 24.0207 5.50452C23.9768 5.52359 23.935 5.54054 23.8932 5.55749C23.8285 5.58504 23.7679 5.61046 23.7094 5.63589C23.5611 5.69733 23.4315 5.75666 23.3166 5.80751C23.0847 5.91345 22.9218 5.99396 22.8319 6.03845C22.8111 6.04905 22.7923 6.05964 22.7797 6.066C22.7797 6.066 22.7755 6.06812 22.7735 6.07023C22.7609 6.07447 22.7547 6.07871 22.7505 6.08083C22.7484 6.08295 22.7463 6.08295 22.7463 6.08295C8.93501 12.2909 4.85493 25.8786 4.85493 25.8786C4.20312 28.0079 3.61189 30.1076 3.22749 32.2963C3.18989 32.523 3.15437 32.7497 3.12095 32.9764C2.37095 38.0191 2.83473 42.9028 4.30757 47.5472C4.59379 48.4603 4.92178 49.3629 5.28738 50.2549C5.23724 50.0388 5.17875 49.7825 5.17875 49.7825C5.17875 49.7825 3.9378 43.7228 5.091 37.9047C5.091 37.9047 6.09588 31.8471 10.178 27.1668C10.178 27.1668 16.8006 17.6005 29.1328 21.3486C29.1328 21.3486 31.7943 22.3084 32.7115 22.7894C33.6286 23.2386 35.2247 23.9293 35.2247 23.9293C43.9489 28.2177 51.3424 29.5673 51.3424 29.5673C66.9879 32.237 66.1001 24.4992 66.1001 24.4992ZM36.9984 12.6935L26.1161 9.26109C26.0576 9.26109 25.763 9.11278 25.2303 9.26109C25.2303 9.26109 19.2867 10.7908 20.3208 14.0919C20.3208 14.0919 20.9413 16.1598 22.6272 18.1705L34.6147 17.6938L34.4684 18.001C34.3347 18.2786 34.0631 18.4608 33.7581 18.4756L22.6669 19.0159C22.6544 19.018 22.6397 19.018 22.6272 19.018C22.3828 19.018 22.1509 18.9078 21.99 18.7193C20.2143 16.6005 19.5478 14.4288 19.5207 14.3377C19.247 13.4668 19.3347 12.5748 19.7735 11.7739C21.0019 9.53229 24.6161 8.54495 25.0235 8.44113C25.2365 8.37969 25.4643 8.34791 25.6836 8.34791C25.9636 8.34791 26.1641 8.40087 26.2665 8.42842C26.2999 8.43477 26.3333 8.44325 26.3647 8.45173L36.4489 11.632C36.6829 11.7061 36.8709 11.8778 36.9691 12.1045C37.0485 12.2909 37.059 12.5007 36.9984 12.6935ZM47.912 16.9692C47.9016 17.8463 47.1996 18.5561 46.3285 18.5603H46.3159C45.4406 18.5625 44.7303 17.8527 44.7177 16.9692V16.9395C44.7157 16.0496 45.4239 15.325 46.3034 15.3208H46.3159C47.1934 15.3165 47.9079 16.0348 47.912 16.9268V16.9692Z" fill="white"/>
<path d="M3.03968 46.1807C2.32937 45.331 1.66711 44.4412 1.09887 43.4835C0.653883 42.6741 0.181738 41.8033 0.0334097 40.8753C-0.114919 39.9451 0.240234 39.0447 0.772964 38.2946C1.15737 37.7247 1.6316 37.2755 1.86767 36.5848C1.90319 36.4894 1.93452 36.3941 1.96168 36.2966C1.81753 39.6189 2.17686 42.922 3.03968 46.1807Z" fill="white"/>
<path d="M4.3222 47.5621C4.3222 47.5621 4.31175 47.5537 4.30757 47.5473C2.83473 42.903 2.37095 38.0192 3.12095 32.9766C2.3793 38.015 2.85145 42.9136 4.3222 47.5621Z" fill="white"/>
<path d="M23.3167 5.80761C23.4316 5.75676 23.5611 5.69743 23.7094 5.63599C23.5632 5.69743 23.4316 5.75676 23.3167 5.80761Z" fill="white"/>
<path d="M33.7939 2.55089C27.1859 2.87506 22.8134 5.09341 22.383 5.32012C15.0794 8.60844 10.4916 13.9414 7.92619 17.8378C5.14346 22.0668 4.09889 25.4886 4.05711 25.6264C3.43872 27.6455 2.81198 29.8321 2.4046 32.1521C2.28134 32.8768 2.18315 33.5993 2.11003 34.3218C1.80502 31.2114 -0.793868 28.0227 0.921313 24.9483C1.51254 23.9292 2.31059 22.9694 3.25697 22.249C5.50488 20.4799 6.50975 19.5794 6.65808 16.4013C6.71658 15.3207 6.68733 14.2105 6.80641 13.132C6.92549 11.7506 7.36839 10.5513 8.46309 9.65299C9.46797 8.8415 10.7403 8.39233 11.9812 8.18257C13.1929 7.97281 14.3774 8.0618 15.5599 7.61262C16.9199 7.102 18.1024 6.20364 19.078 5.12307C19.9366 4.16327 20.7054 3.11449 21.6226 2.15469C24.6685 -1.05524 29.695 -0.3052 33.0669 1.97459C33.2841 2.12078 33.5453 2.33478 33.7939 2.55089Z" fill="white"/>
<path d="M2.11 34.3218C2.03897 34.9807 1.99092 35.6396 1.96167 36.2965C2.12044 35.7562 2.15805 35.1968 2.13298 34.6354C2.1288 34.5315 2.12044 34.4256 2.11 34.3218Z" fill="white"/>
<path d="M74.1726 52.3313C74.1726 52.3313 71.837 61.6899 60.2151 69.7878C60.2151 69.7878 47.5884 79.1443 29.1037 72.7859C29.1037 72.7859 16.6232 68.7666 8.93515 57.1303C8.57164 56.5794 8.22275 56.0222 7.88849 55.4607C7.7715 55.0073 7.58975 54.5709 7.40381 54.1429C5.28752 49.2697 4.88223 43.2609 5.91008 38.072C5.91217 38.0636 5.91426 38.0551 5.91426 38.0445C5.9247 37.9873 6.9254 32.1755 10.8049 27.7282C10.8237 27.7049 10.8446 27.6795 10.8613 27.6541C10.9052 27.5926 15.3697 21.3253 23.5361 21.3253C25.2618 21.3253 27.0563 21.605 28.8739 22.1538C29.6155 22.4228 31.6232 23.1729 32.3272 23.5416C32.3356 23.5458 32.3418 23.55 32.3481 23.5522C32.8349 23.7916 33.4971 24.0903 34.0257 24.3255C31.103 25.209 24.0062 28.0715 21.2673 35.5359C17.7785 45.0428 22.5981 53.3801 22.5981 53.3801C22.5981 53.3801 25.8801 59.889 33.0375 62.8891C33.0375 62.8891 27.33 57.7299 27.4783 52.1809L27.5076 52.2105C27.7144 52.5114 28.7799 53.6513 28.7799 53.6513C29.9623 54.9416 31.2325 56.1409 32.5633 57.2511C39.6329 63.2175 48.2381 66.3088 57.4052 64.118C57.4052 64.118 50.3962 64.5672 45.7248 59.2597C45.7248 59.2597 56.8349 59.8 67.0946 48.562C66.8168 48.8142 61.6482 53.4034 54.6852 52.0919C54.6852 52.0919 61.103 48.6426 65.6281 38.9852C65.6281 38.9852 71.0097 28.3067 66.9588 19.5498C66.9588 19.5498 76.8655 28.8469 66.9003 44.2313C67.0131 44.155 70.6587 41.6337 74.6469 32.8366C74.6469 32.8366 76.8049 42.104 70.4477 50.8927C70.4477 50.8927 67.5501 56.0815 60.7478 59.0796C60.7478 59.0796 64.7987 59.7703 74.1726 52.3313Z" fill="white"/>
</g>
<defs>
<clipPath id="clip0_105805_1692">
<rect width="75" height="75" fill="white"/>
</clipPath>
</defs>
</svg>
