<?xml version="1.0" encoding="UTF-8" standalone="no"?>
<!DOCTYPE svg PUBLIC "-//W3C//DTD SVG 1.1//EN" "http://www.w3.org/Graphics/SVG/1.1/DTD/svg11.dtd">
<svg width="100%" height="100%" viewBox="0 0 250 58" version="1.1" xmlns="http://www.w3.org/2000/svg" xmlns:xlink="http://www.w3.org/1999/xlink" xml:space="preserve" xmlns:serif="http://www.serif.com/" style="fill-rule:evenodd;clip-rule:evenodd;stroke-linejoin:round;stroke-miterlimit:2;">
    <g transform="matrix(2.35713,0,0,2.35713,-225.074,-511.535)">
        <path d="M95.487,241L95.487,217.016L100.264,217.016L105.941,233.998C106.464,235.579 106.846,236.763 107.086,237.548C107.359,236.676 107.784,235.394 108.362,233.703L114.104,217.016L118.374,217.016L118.374,241L115.315,241L115.315,220.926L108.346,241L105.483,241L98.546,220.583L98.546,241L95.487,241Z" style="fill:white;fill-rule:nonzero;"/>
        <path d="M134.456,238.857C133.365,239.784 132.316,240.438 131.307,240.82C130.298,241.202 129.215,241.393 128.059,241.393C126.151,241.393 124.684,240.926 123.658,239.994C122.633,239.061 122.121,237.87 122.121,236.419C122.121,235.569 122.314,234.791 122.701,234.088C123.089,233.384 123.596,232.82 124.223,232.395C124.85,231.969 125.556,231.648 126.342,231.429C126.92,231.277 127.792,231.13 128.959,230.988C131.337,230.704 133.087,230.366 134.211,229.973C134.222,229.57 134.227,229.314 134.227,229.204C134.227,228.005 133.949,227.16 133.393,226.669C132.64,226.003 131.522,225.671 130.039,225.671C128.654,225.671 127.631,225.913 126.971,226.399C126.312,226.884 125.823,227.743 125.507,228.975L122.628,228.583C122.89,227.35 123.32,226.355 123.92,225.597C124.52,224.839 125.387,224.256 126.521,223.847C127.656,223.438 128.97,223.233 130.464,223.233C131.948,223.233 133.153,223.408 134.08,223.757C135.007,224.106 135.688,224.545 136.125,225.074C136.561,225.603 136.866,226.271 137.041,227.078C137.139,227.579 137.188,228.485 137.188,229.793L137.188,233.72C137.188,236.457 137.251,238.189 137.376,238.914C137.502,239.639 137.75,240.335 138.121,241L135.045,241C134.74,240.389 134.543,239.675 134.456,238.857ZM134.211,232.28C133.142,232.716 131.539,233.087 129.401,233.393C128.19,233.567 127.334,233.763 126.832,233.982C126.331,234.2 125.943,234.519 125.671,234.939C125.398,235.359 125.262,235.825 125.262,236.337C125.262,237.123 125.559,237.777 126.153,238.301C126.748,238.824 127.618,239.086 128.763,239.086C129.897,239.086 130.906,238.838 131.789,238.342C132.673,237.845 133.322,237.166 133.736,236.305C134.052,235.639 134.211,234.658 134.211,233.36L134.211,232.28Z" style="fill:white;fill-rule:nonzero;"/>
        <path d="M141.72,241L141.72,223.626L144.37,223.626L144.37,226.26C145.046,225.027 145.671,224.215 146.243,223.822C146.816,223.429 147.446,223.233 148.133,223.233C149.125,223.233 150.134,223.549 151.16,224.182L150.145,226.914C149.425,226.489 148.706,226.276 147.986,226.276C147.342,226.276 146.764,226.47 146.252,226.857C145.739,227.244 145.374,227.781 145.155,228.468C144.828,229.515 144.665,230.661 144.665,231.904L144.665,241L141.72,241Z" style="fill:rgb(151,71,255);fill-rule:nonzero;"/>
        <path d="M152.926,241L152.926,217.016L155.871,217.016L155.871,230.693L162.84,223.626L166.652,223.626L160.01,230.072L167.323,241L163.691,241L157.949,232.117L155.871,234.112L155.871,241L152.926,241Z" style="fill:white;fill-rule:nonzero;"/>
        <path d="M181.049,241L181.049,238.448C179.697,240.411 177.859,241.393 175.536,241.393C174.511,241.393 173.554,241.196 172.665,240.804C171.776,240.411 171.116,239.918 170.685,239.323C170.254,238.729 169.952,238.001 169.777,237.139C169.657,236.561 169.597,235.645 169.597,234.391L169.597,223.626L172.542,223.626L172.542,233.262C172.542,234.8 172.602,235.836 172.722,236.37C172.907,237.145 173.3,237.753 173.9,238.194C174.5,238.636 175.241,238.857 176.125,238.857C177.008,238.857 177.837,238.631 178.611,238.178C179.386,237.725 179.934,237.109 180.256,236.329C180.577,235.549 180.738,234.418 180.738,232.935L180.738,223.626L183.683,223.626L183.683,241L181.049,241Z" style="fill:white;fill-rule:nonzero;"/>
        <path d="M187.119,235.814L190.031,235.356C190.194,236.523 190.65,237.417 191.397,238.039C192.144,238.661 193.188,238.971 194.53,238.971C195.882,238.971 196.885,238.696 197.54,238.145C198.194,237.594 198.521,236.948 198.521,236.207C198.521,235.541 198.232,235.018 197.654,234.636C197.251,234.374 196.247,234.042 194.644,233.638C192.485,233.093 190.988,232.621 190.153,232.223C189.319,231.825 188.686,231.274 188.256,230.571C187.825,229.867 187.609,229.09 187.609,228.239C187.609,227.465 187.787,226.748 188.141,226.088C188.496,225.428 188.978,224.88 189.589,224.444C190.047,224.106 190.671,223.819 191.462,223.585C192.253,223.35 193.101,223.233 194.006,223.233C195.369,223.233 196.566,223.429 197.597,223.822C198.628,224.215 199.389,224.746 199.879,225.417C200.37,226.088 200.708,226.985 200.894,228.108L198.014,228.501C197.883,227.607 197.504,226.909 196.877,226.407C196.25,225.905 195.364,225.654 194.219,225.654C192.866,225.654 191.901,225.878 191.323,226.325C190.745,226.772 190.456,227.296 190.456,227.896C190.456,228.277 190.576,228.621 190.816,228.926C191.056,229.243 191.432,229.504 191.945,229.712C192.239,229.821 193.106,230.072 194.546,230.464C196.629,231.02 198.082,231.476 198.906,231.83C199.729,232.185 200.376,232.7 200.845,233.376C201.314,234.052 201.548,234.892 201.548,235.896C201.548,236.877 201.262,237.802 200.689,238.669C200.117,239.536 199.29,240.207 198.211,240.681C197.131,241.155 195.909,241.393 194.546,241.393C192.288,241.393 190.568,240.924 189.384,239.986C188.201,239.048 187.446,237.657 187.119,235.814Z" style="fill:rgb(112,230,28);fill-rule:nonzero;"/>
    </g>
</svg>
